<?xml version="1.0" encoding="UTF-8"?>
<svg version="1.1" viewBox="0 0 1200 1200" width="1280" height="1280" xmlns="http://www.w3.org/2000/svg">
<path transform="translate(0)" d="m0 0h1200v1200h-1200z" fill="#FEFEFE"/>
<path transform="translate(286,123)" d="m0 0h300l12 3 13 5 12 7 13 11 328 328 11 14 8 17 3 11 1 7v21l-4 16-5 12-6 10-8 10-12 11-14 8-13 5-11 2-261 1 311 311 11 14 8 17 3 11 1 7v21l-4 16-5 12-6 10-8 10-12 11-14 8-13 5-11 2h-300l-13-3-16-7-12-8-15-14-323-323-10-13-8-17-3-11-1-7v-21l4-16 5-12 6-10 8-10 7-7 10-7 16-8 11-3 6-1 261-1-312-312-10-13-8-17-3-11-1-7v-21l4-16 5-12 6-10 8-10 7-7 10-7 16-8 11-3z"/>
</svg>
